HIERARCHY
ROOT pelvis
{
  OFFSET 0 100 0
  CHANNELS 6 Xposition Yposition Zposition Zrotation Xrotation Yrotation
  JOINT pelvis_right_femur
  {
    OFFSET -10.78128 -3.44521 -0.5502486
    CHANNELS 3 Zrotation Xrotation Yrotation
    JOINT right_femur_tibia
    {
      OFFSET -0.8047443 -44.0398 -0.1307829
      CHANNELS 3 Zrotation Xrotation Yrotation
      JOINT right_tibia_foot
      {
        OFFSET 3.006224 -47.83518 -5
        CHANNELS 3 Zrotation Xrotation Yrotation
        End Site
        {
          OFFSET 0 -5 15
        }
      }
    }
  }
  JOINT pelvis_left_femur
  {
    OFFSET 10.78128 -3.44521 -0.5502486
    CHANNELS 3 Zrotation Xrotation Yrotation
    JOINT left_femur_tibia
    {
      OFFSET 0.8047443 -44.0398 -0.1307829
      CHANNELS 3 Zrotation Xrotation Yrotation
      JOINT left_tibia_foot
      {
        OFFSET -4.370144 -48.10324 -4.275266
        CHANNELS 3 Zrotation Xrotation Yrotation
        End Site
        {
          OFFSET 0 -5 15
        }
      }
    }
  }
  JOINT pelvis_spine1
  {
    OFFSET 0 6.468898 -3.129235
    CHANNELS 3 Zrotation Xrotation Yrotation
    JOINT spine1
    {
      OFFSET 0 23.15396 4.99043
      CHANNELS 3 Zrotation Xrotation Yrotation
      JOINT spine2
      {
        OFFSET 0 20.79997 -5.064912
        CHANNELS 3 Zrotation Xrotation Yrotation
        JOINT neck
        {
          OFFSET 0 14.38658 9.616178
          CHANNELS 3 Zrotation Xrotation Yrotation
          End Site
          {
            OFFSET 0 20 0
          }
        }
      }
      JOINT right_manubrium
      {
        OFFSET -5.722621 16.35077 3.967754
        CHANNELS 3 Zrotation Xrotation Yrotation
        JOINT right_clavicle
        {
          OFFSET -13.16364 1.694482 -4.693211
          CHANNELS 3 Zrotation Xrotation Yrotation
          JOINT right_humerus
          {
            OFFSET -28.5034 -0.3100689 -2.792744
            CHANNELS 3 Zrotation Xrotation Yrotation
            JOINT right_radius
            {
              OFFSET -25.15693 0.02248979 -1.271978
              CHANNELS 3 Zrotation Xrotation Yrotation
              End Site
              {
                OFFSET -15 0 0
              }
            }
          }
        }
      }
      JOINT left_manubrium
      {
        OFFSET 5.722621 16.35077 3.967754
        CHANNELS 3 Zrotation Xrotation Yrotation
        JOINT left_clavicle
        {
          OFFSET 13.16364 1.694482 -4.693211
          CHANNELS 3 Zrotation Xrotation Yrotation
          JOINT left_humerus
          {
            OFFSET 29.39168 -1.063119 -2.237045
            CHANNELS 3 Zrotation Xrotation Yrotation
            JOINT left_radius
            {
              OFFSET 24.59957 -0.9528479 0.9047498
              CHANNELS 3 Zrotation Xrotation Yrotation
              End Site
              {
                OFFSET 15 -0 -0
              }
            }
          }
        }
      }
    }
  }
}
MOTION
Frames: 11
Frame Time: 0.0416666666667
0 103.5113 0 0.5315595 -0.6908598 -0.05567085 4.173869 -18.65311 9.494053 -0 39.22732 -0 -6.337742 -14.52538 -2.325685 -6.989789 10.42266 -24.06 -0 5.233807 -0 9.615284 -17.02333 27.96895 -3.682997 -2.937811 4.508918 2.52742 9.429742 -6.981351 1.656941 22.2927 7.023019 3.481947 -24.95286 9.888849 7.043672 -19.66275 11.58798 84.29848 36.27531 -17.19479 -0 0 16.15183 -6.412649 8.060331 4.386733 6.04057 -18.92318 -1.09069 -94.53865 25.94364 22.31286 0 0 -14.02071 10.2376 17.44443 2.560046
0.3812097 103.4502 1.388212 0.5799111 -0.9799517 -0.1308399 4.012142 -17.95724 9.618808 -0 40.37148 -0 -6.418186 -14.62178 -2.373576 -7.016306 10.38505 -24.29544 -0 5.398547 -0 9.703599 -16.71918 28.24158 -3.736081 -2.951938 4.484344 2.487762 9.442823 -6.877107 1.706181 22.42216 6.961283 3.44657 -24.85371 9.905312 7.087032 -19.66675 11.56647 84.19345 36.19156 -16.90654 -0 0 16.19344 -6.340269 7.985312 4.390798 5.941396 -18.72399 -1.074908 -94.67835 25.90497 22.4258 0 0 -13.36428 10.35313 17.56444 2.41051
0.7235275 103.1844 3.119079 0.4143408 -0.2313566 -0.1435596 4.426181 -20.65368 8.522021 -0 35.45024 -0 -6.43104 -13.21476 -2.156032 -6.840694 10.86071 -22.93693 -0 5.070239 -0 9.169349 -17.91814 26.8778 -3.480936 -2.828588 4.434586 2.566133 9.522037 -7.265409 1.520747 22.02854 7.153896 3.577473 -25.07177 9.736605 6.523685 -19.5954 11.60552 85.10889 35.81778 -18.19846 -0 0 15.56398 -7.207084 8.176401 4.586526 6.37008 -19.75961 -1.40809 -93.62817 25.60301 21.30235 0 0 -16.09205 10.21253 17.02428 2.48037
1.035638 102.7277 5.121107 0.2147812 0.7351429 -0.08552908 4.932177 -23.25854 7.862525 -0 30.99238 -0 -6.261554 -12.44015 -1.984821 -6.692259 11.19073 -21.87729 -0 4.707041 -0 8.601392 -19.0143 25.62661 -3.241547 -2.748019 4.450785 2.688371 9.493785 -7.651214 1.346822 21.57495 7.365232 3.704864 -25.37412 9.642742 6.227539 -19.51614 11.64751 85.69752 35.89269 -19.34924 -0 0 15.19825 -7.678811 8.450509 4.654946 6.747152 -20.57749 -1.537591 -92.9238 25.62147 20.62294 0 0 -18.57758 9.839544 16.53372 2.934726
1.308624 102.0526 7.501697 -0.0009149179 1.553702 0.04754621 5.362305 -25.93946 6.925746 -0 26.16911 -0 -6.227903 -11.12823 -1.806345 -6.494062 11.76245 -20.5389 -0 4.720334 -0 7.895283 -20.03237 24.12682 -2.94321 -2.656478 4.399539 2.784601 9.529685 -8.03808 1.189043 21.13756 7.532719 3.812179 -25.6038 9.502155 5.711183 -19.39644 11.658 86.55509 35.55421 -20.60241 -0 0 14.59255 -8.429111 8.705621 4.800895 7.145457 -21.52649 -1.78597 -91.9252 25.25748 19.57259 0 0 -21.15713 9.746196 15.96154 2.977961
1.540395 101.1776 10.31805 -0.2594358 2.38692 0.2557099 5.789346 -28.61653 5.981685 -0 21.2898 -0 -6.232773 -9.682243 -1.636885 -6.268326 12.43037 -19.12942 -0 5.096003 -0 6.983563 -20.93156 22.43252 -2.599525 -2.5677 4.321491 2.881384 9.553104 -8.428108 1.041402 20.68303 7.689748 3.91411 -25.82587 9.359478 5.178513 -19.22237 11.64425 87.45549 35.17937 -21.87877 -0 0 13.90546 -9.194611 8.996799 4.955833 7.528834 -22.46777 -2.019009 -90.90595 24.8465 18.4944 0 0 -23.70113 9.656389 15.35445 3.028133
1.728607 100.1305 13.6548 -0.5632138 3.145723 0.5349086 6.1876 -31.13843 4.982545 -0 16.49704 -0 -6.339195 -7.960961 -1.473317 -6.009105 13.22271 -17.60999 -0 6.138707 -0 5.831037 -21.57964 20.50505 -2.195055 -2.483366 4.20007 2.964961 9.590146 -8.801612 0.914583 20.2363 7.814439 4.001638 -26.00956 9.2019 4.590269 -18.97973 11.59892 88.44457 34.66242 -23.15147 -0 0 13.07184 -10.02663 9.311795 5.136961 7.872853 -23.39481 -2.265122 -89.83963 24.28175 17.3511 0 0 -26.09682 9.653808 14.7101 2.969408
1.874688 98.98078 17.59209 -0.9188274 3.801503 0.8742695 6.574584 -33.25153 4.0304 -0 12.17053 -0 -6.567721 -6.039953 -1.32147 -5.718132 14.06468 -16.06422 -0 8.160997 -0 4.38479 -21.80991 18.36796 -1.727981 -2.407784 4.0396 3.030602 9.630318 -9.133037 0.8160009 19.81807 7.901895 4.07437 -26.1491 9.037854 4.019458 -18.64872 11.51989 89.45579 34.10297 -24.34842 -0 0 12.10983 -10.84086 9.662071 5.330172 8.127696 -24.21904 -2.488169 -88.84305 23.66631 16.28734 0 0 -28.13214 9.661522 14.06048 2.926228
1.984523 97.84927 22.19836 -1.316129 4.25964 1.248921 6.965265 -34.55872 3.236957 -0 8.852147 -0 -6.957961 -3.989892 -1.188971 -5.395602 14.83147 -14.58655 -0 11.62306 -0 2.636266 -21.38673 16.10692 -1.202675 -2.342554 3.848432 3.064005 9.681308 -9.379487 0.7572047 19.47405 7.936213 4.127477 -26.21742 8.86908 3.537736 -18.2159 11.40969 90.42746 33.57347 -25.3696 -0 0 11.03362 -11.5638 10.04827 5.52426 8.22295 -24.83403 -2.667022 -88.03613 23.09129 15.45498 0 0 -29.51075 9.623585 13.45064 2.992468
2.069284 96.91946 27.50106 -1.720258 4.391388 1.613216 7.379946 -34.55486 2.757634 -0 7.201695 -0 -7.527589 -1.98266 -1.093129 -5.04395 15.29348 -13.30704 -0 17.01701 -0 0.6525125 -20.06617 13.91813 -0.6418721 -2.282219 3.655108 3.046565 9.759212 -9.486613 0.7483021 19.26821 7.900054 4.155374 -26.17594 8.695416 3.24253 -17.68651 11.28331 91.26704 33.1799 -26.09008 -0 0 9.898266 -12.10361 10.46777 5.69984 8.074382 -25.11261 -2.780326 -87.56869 22.70066 15.0475 0 0 -29.89953 9.448351 12.94185 3.307174
2.142326 96.42025 33.44893 -2.057951 4.029995 1.896443 7.80245 -32.75589 2.705454 -0 7.731167 -0 -8.248552 -0.2682882 -1.064853 -4.674468 15.11471 -12.32273 -0 24.69189 -0 -1.385969 -17.71107 12.10641 -0.0925985 -2.205721 3.51571 2.95516 9.904837 -9.401138 0.7925443 19.27619 7.774042 4.14984 -25.96809 8.503627 3.202736 -17.10865 11.17687 91.8815 32.97715 -26.38832 -0 0 8.799194 -12.42206 10.90523 5.841679 7.614134 -24.97033 -2.836762 -87.55834 22.60195 15.21467 0 0 -29.07748 9.055125 12.58604 3.968734
